<svg width="288" height="80" viewBox="0 0 288 80" fill="none" xmlns="http://www.w3.org/2000/svg">
<path d="M78.3431 32.0277C80.8158 32.0277 82.3367 33.0378 82.7731 33.3649L84.43 30.3601C83.5604 29.7059 81.4671 28.5033 78.128 28.5033C72.0158 28.5033 67.9684 32.7909 67.9684 38.3644C67.9684 43.909 71.9905 48.1998 78.128 48.1998C81.5525 48.1998 83.5604 47.0261 84.43 46.3687L82.7984 43.3927C82.3083 43.7198 80.8158 44.6755 78.3431 44.6755C74.3778 44.6755 71.8229 42.1613 71.8229 38.3387C71.8229 34.513 74.4031 32.0277 78.3431 32.0277Z" fill="#00AD8C"/>
<path d="M94.5644 36.5927C93.6411 35.7461 92.3352 35.1465 90.6782 35.1465C87.2285 35.1465 84.5913 37.9589 84.5913 41.6756C84.5913 45.3923 87.1462 48.2047 90.596 48.2047C92.4427 48.2047 93.8023 47.3838 94.7257 46.2389L94.8616 47.961H98.0142V35.3902H94.7257L94.5644 36.5927ZM91.3834 44.9498C89.562 44.9498 88.1771 43.5292 88.1771 41.6724C88.1771 39.7868 89.562 38.395 91.3834 38.395C93.3407 38.395 94.5897 39.7611 94.5897 41.6724C94.6181 43.558 93.3407 44.9498 91.3834 44.9498Z" fill="#00AD8C"/>
<path d="M105.211 38.0134C106.596 38.0134 107.927 38.504 109.04 39.2159L110.453 36.5671C109.34 35.8007 107.437 35.1465 105.29 35.1465C102.137 35.1465 100.072 36.705 100.072 39.1069C100.072 41.5922 102.438 42.4933 104.556 43.0129C106.213 43.3945 106.811 43.6959 106.811 44.3501C106.811 45.0043 106.267 45.3346 105.236 45.3346C103.525 45.3346 101.948 44.6804 100.999 43.9685L99.5317 46.6174C100.835 47.5185 102.71 48.2015 104.885 48.2015C108.525 48.2015 110.453 46.534 110.453 44.132C110.453 41.4832 108.306 40.7168 106.27 40.2261C104.395 39.79 103.744 39.5719 103.744 38.9434C103.744 38.3116 104.316 38.0134 105.211 38.0134Z" fill="#00AD8C"/>
<path d="M126.672 48.2048C125.862 48.2048 125.189 47.6211 125.043 46.8515C125.043 46.8451 125.04 46.8386 125.04 46.8322C125.034 46.8034 125.031 46.7745 125.027 46.7456C125.024 46.7007 125.021 46.6591 125.018 46.6366V46.3897C125.018 46.3897 125.018 46.3897 125.018 46.3865V41.0182C125.018 37.4939 122.71 35.1465 119.393 35.1465C117.761 35.1465 116.566 35.7205 115.807 36.5126V28.4506H112.246V47.9546H115.807V41.3998C115.807 39.7323 116.895 38.3661 118.687 38.3661C120.319 38.3661 121.457 39.6232 121.457 41.5089V46.5693H121.461C121.486 49.4458 123.81 51.7708 126.678 51.7708C126.681 51.7708 126.684 51.7708 126.687 51.7708V48.2048C126.681 48.2048 126.675 48.2048 126.672 48.2048Z" fill="#00AD8C"/>
<path d="M142.567 35.1433C138.817 35.1433 135.804 37.9557 135.804 41.6724C135.804 45.3892 138.82 48.2016 142.567 48.2016C146.318 48.2016 149.331 45.3892 149.331 41.6724C149.331 37.9557 146.318 35.1433 142.567 35.1433ZM142.567 44.9498C140.775 44.9498 139.39 43.5035 139.39 41.6724C139.39 39.8702 140.775 38.395 142.567 38.395C144.389 38.395 145.745 39.8702 145.745 41.6724C145.748 43.5035 144.389 44.9498 142.567 44.9498Z" fill="#021B51"/>
<path d="M158.245 35.1433C156.098 35.1433 154.548 36.317 154.115 37.8467L153.979 35.387H151.016V47.9514H154.577V41.6468C154.577 39.8702 155.801 38.5586 157.783 38.5586C158.352 38.5586 158.681 38.6676 159.032 38.8055L159.333 35.2555C159.004 35.1721 158.624 35.1433 158.245 35.1433Z" fill="#021B51"/>
<path d="M166.587 38.395C167.889 38.395 168.759 38.86 169.331 39.2416L170.77 36.5382C170.036 36.0187 168.651 35.1465 166.179 35.1465C162.267 35.1465 159.304 38.0134 159.304 41.6756C159.304 45.3635 162.185 48.2047 166.179 48.2047C168.651 48.2047 169.983 47.2748 170.745 46.7841L169.331 44.1064C168.762 44.488 167.918 44.953 166.533 44.953C164.386 44.953 162.947 43.5869 162.947 41.6756C162.947 39.7643 164.411 38.395 166.587 38.395Z" fill="#021B51"/>
<path d="M184 41.7013C184 37.93 181.556 35.1465 177.777 35.1465C173.948 35.1465 171.257 38.0134 171.257 41.6756C171.257 45.3635 174.163 48.2047 178.131 48.2047C180.983 48.2047 182.533 47.1657 183.295 46.4827L181.828 43.914C181.284 44.3501 180.332 45.1967 178.514 45.1967C176.557 45.1967 175.172 44.1032 174.764 42.6569H183.946C183.946 42.6569 184 42.163 184 41.7013ZM174.789 40.3608C175.197 38.8023 176.364 37.9845 177.913 37.9845C179.327 37.9845 180.44 38.9402 180.604 40.3608H174.789Z" fill="#021B51"/>
<path d="M131.892 34.1074C131.892 32.2218 133.088 31.4842 134.311 31.4842C135.153 31.4842 135.589 31.7568 135.832 31.8947L137.192 29.217C136.594 28.8065 135.56 28.2325 133.904 28.2325C130.372 28.2325 128.335 30.4163 128.335 33.915V35.3902H126.602V38.395H128.335V46.5468H128.332C128.326 47.4575 127.595 48.1951 126.691 48.2047V51.7675C129.559 51.7611 131.886 49.4265 131.899 46.5436H131.896V38.395H135.646V35.3902H131.896V34.1074H131.892Z" fill="#021B51"/>
<path d="M53.5241 35.5473C53.404 35.8327 53.1321 36.0187 52.8285 36.0219C52.8253 36.0219 52.8253 36.0219 52.8253 36.0219H43.7819L35.9337 43.9813H33.8025L42.9408 34.7135C43.0831 34.5724 43.276 34.4923 43.4688 34.4923H51.0072L43.1558 26.5297H26.5772L34.6436 34.7135C34.9376 35.0118 34.9376 35.4992 34.6467 35.7975L26.5772 43.9813H33.7993C33.4958 43.9813 33.2238 44.1673 33.1037 44.4559C32.9867 44.7414 33.0531 45.0685 33.2681 45.2865L33.4863 45.5078H24.7527C24.4491 45.5078 24.174 45.3218 24.057 45.0332C23.9401 44.7446 24.0065 44.4175 24.2246 44.1994L33.0467 35.2523L24.2246 26.3052C24.0065 26.0903 23.9401 25.7632 24.057 25.4746C24.1772 25.186 24.4491 25 24.7527 25H43.4657C43.6617 25 43.8546 25.0802 43.9969 25.2213L53.1415 34.4923L53.3597 34.7135C53.5747 34.938 53.6411 35.2619 53.5241 35.5473Z" fill="#00AD8C"/>
<path d="M62.5741 54.5254C62.4539 54.814 62.1788 55 61.8753 55H43.1559C42.9599 55 42.767 54.9198 42.6279 54.7787L33.4896 45.5109L33.2714 45.2896C33.0564 45.0716 32.99 44.7445 33.107 44.4591C33.2271 44.1705 33.4991 43.9845 33.8026 43.9845H42.8461L50.6943 36.0219H52.8255C52.8286 36.0219 52.8286 36.0219 52.8286 36.0219L43.6903 45.2896C43.5386 45.4372 43.352 45.5109 43.1559 45.5109H35.6208L43.4721 53.4735H60.0539L51.9844 45.2896C51.8421 45.1453 51.7662 44.9529 51.7662 44.7477C51.7662 44.5425 51.8452 44.35 51.9844 44.2057L60.0539 36.0219H52.8286C53.1322 36.0186 53.4041 35.8327 53.5243 35.5472C53.6381 35.2618 53.5749 34.9379 53.3599 34.7135L53.1417 34.4922H61.8721C62.1756 34.4922 62.4507 34.6782 62.5709 34.9636C62.6879 35.2522 62.6215 35.5793 62.4065 35.8006L53.5844 44.7477L62.4065 53.6948C62.6215 53.9129 62.6879 54.24 62.5741 54.5254Z" fill="#021B51"/>
</svg>
